{
  "accessors": [
    {
      "bufferView": 2,
      "componentType": 5126,
      "count": 8426,
      "max": [
        4.178373336791992,
        50.08625030517578,
        10.060774803161621
      ],
      "min": [
        -30.919111251831055,
        -4.551271438598633,
        -9.295570633756703e-14
      ],
      "type": "VEC3"
    },
    {
      "bufferView": 2,
      "byteOffset": 101112,
      "componentType": 5126,
      "count": 8426,
      "max": [
        1.0,
        1.0,
        1.0
      ],
      "min": [
        -1.0,
        -1.0,
        -1.0
      ],
      "type": "VEC3"
    },
    {
      "bufferView": 3,
      "componentType": 5126,
      "count": 8426,
      "max": [
        1.0,
        1.0,
        1.0,
        1.0
      ],
      "min": [
        -1.0,
        -1.0,
        -1.0,
        -1.0
      ],
      "type": "VEC4"
    },
    {
      "bufferView": 1,
      "componentType": 5126,
      "count": 8426,
      "max": [
        0.9989882111549377,
        0.999613881111145
      ],
      "min": [
        0.0006054587429389358,
        0.000606826797593385
      ],
      "type": "VEC2"
    },
    {
      "bufferView": 1,
      "byteOffset": 67408,
      "componentType": 5126,
      "count": 8426,
      "max": [
        0.9989882111549377,
        0.999613881111145
      ],
      "min": [
        0.0006054587429389358,
        0.000606826797593385
      ],
      "type": "VEC2"
    },
    {
      "bufferView": 1,
      "byteOffset": 134816,
      "componentType": 5126,
      "count": 8426,
      "max": [
        0.9989882111549377,
        0.999613881111145
      ],
      "min": [
        0.0006054587429389358,
        0.000606826797593385
      ],
      "type": "VEC2"
    },
    {
      "bufferView": 0,
      "componentType": 5125,
      "count": 17760,
      "type": "SCALAR"
    }
  ],
  "asset": {
    "extras": {
      "author": "xplanepilot (https://sketchfab.com/xplanepilot)",
      "license": "CC-BY-NC-4.0 (http://creativecommons.org/licenses/by-nc/4.0/)",
      "source": "https://sketchfab.com/3d-models/airfield-hangar-bb630d26096d4dffab6a21147e44d8cb",
      "title": "Airfield Hangar"
    },
    "generator": "Sketchfab-15.63.0",
    "version": "2.0"
  },
  "bufferViews": [
    {
      "buffer": 0,
      "byteLength": 71040,
      "name": "floatBufferViews",
      "target": 34963
    },
    {
      "buffer": 0,
      "byteLength": 202224,
      "byteOffset": 71040,
      "byteStride": 8,
      "name": "floatBufferViews",
      "target": 34962
    },
    {
      "buffer": 0,
      "byteLength": 202224,
      "byteOffset": 273264,
      "byteStride": 12,
      "name": "floatBufferViews",
      "target": 34962
    },
    {
      "buffer": 0,
      "byteLength": 134816,
      "byteOffset": 475488,
      "byteStride": 16,
      "name": "floatBufferViews",
      "target": 34962
    }
  ],
  "buffers": [
    {
      "byteLength": 610304,
      "uri": "scene.bin"
    }
  ],
  "images": [
    {
      "uri": "textures/oldHangar_M_baseColor.png"
    },
    {
      "uri": "textures/oldHangar_M_metallicRoughness.png"
    },
    {
      "uri": "textures/oldHangar_M_normal.png"
    }
  ],
  "materials": [
    {
      "doubleSided": true,
      "name": "oldHangar_M",
      "normalTexture": {
        "index": 2
      },
      "occlusionTexture": {
        "index": 1
      },
      "pbrMetallicRoughness": {
        "baseColorTexture": {
          "index": 0
        },
        "metallicRoughnessTexture": {
          "index": 1
        }
      }
    }
  ],
  "meshes": [
    {
      "name": "old_hangar_oldHangar_M_0",
      "primitives": [
        {
          "attributes": {
            "NORMAL": 1,
            "POSITION": 0,
            "TANGENT": 2,
            "TEXCOORD_0": 3,
            "TEXCOORD_1": 4,
            "TEXCOORD_2": 5
          },
          "indices": 6,
          "material": 0,
          "mode": 4
        }
      ]
    }
  ],
  "nodes": [
    {
      "children": [
        1
      ],
      "matrix": [
        1.0,
        0.0,
        0.0,
        0.0,
        0.0,
        2.220446049250313e-16,
        -1.0,
        0.0,
        0.0,
        1.0,
        2.220446049250313e-16,
        0.0,
        0.0,
        0.0,
        0.0,
        1.0
      ],
      "name": "Sketchfab_model"
    },
    {
      "children": [
        2
      ],
      "matrix": [
        0.009999999776482582,
        0.0,
        0.0,
        0.0,
        0.0,
        0.0,
        0.009999999776482582,
        0.0,
        0.0,
        -0.009999999776482582,
        0.0,
        0.0,
        0.0,
        0.0,
        0.0,
        1.0
      ],
      "name": "8f79b39c007449bbaa235d7965cf9f73.fbx"
    },
    {
      "children": [
        3
      ],
      "name": "RootNode"
    },
    {
      "children": [
        4
      ],
      "matrix": [
        100.0,
        0.0,
        0.0,
        0.0,
        0.0,
        -1.629206793918314e-05,
        -99.99999999999868,
        0.0,
        0.0,
        99.99999999999868,
        -1.629206793918314e-05,
        0.0,
        1337.036865234375,
        0.0,
        2276.7490234375,
        1.0
      ],
      "name": "old_hangar"
    },
    {
      "mesh": 0,
      "name": "old_hangar_oldHangar_M_0"
    }
  ],
  "samplers": [
    {
      "magFilter": 9729,
      "minFilter": 9987,
      "wrapS": 10497,
      "wrapT": 10497
    }
  ],
  "scene": 0,
  "scenes": [
    {
      "name": "Sketchfab_Scene",
      "nodes": [
        0
      ]
    }
  ],
  "textures": [
    {
      "sampler": 0,
      "source": 0
    },
    {
      "sampler": 0,
      "source": 1
    },
    {
      "sampler": 0,
      "source": 2
    }
  ]
}
